<svg width="32" height="32" viewBox="0 0 32 32" fill="none" xmlns="http://www.w3.org/2000/svg">
  <defs>
    <linearGradient id="gradient" x1="0%" y1="0%" x2="100%" y2="100%">
      <stop offset="0%" style="stop-color:#10b981;stop-opacity:1" />
      <stop offset="100%" style="stop-color:#2563eb;stop-opacity:1" />
    </linearGradient>
  </defs>
  <rect width="32" height="32" rx="8" fill="url(#gradient)"/>
  <path d="M16 8C12.6863 8 10 10.6863 10 14C10 17.3137 12.6863 20 16 20C19.3137 20 22 17.3137 22 14C22 10.6863 19.3137 8 16 8Z" fill="white"/>
  <path d="M16 12C17.1046 12 18 12.8954 18 14C18 15.1046 17.1046 16 16 16C14.8954 16 14 15.1046 14 14C14 12.8954 14.8954 12 16 12Z" fill="url(#gradient)"/>
  <path d="M8 22C8 20.8954 8.89543 20 10 20H22C23.1046 20 24 20.8954 24 22V24C24 25.1046 23.1046 26 22 26H10C8.89543 26 8 25.1046 8 24V22Z" fill="white"/>
</svg>